<svg xmlns="http://www.w3.org/2000/svg" xmlns:xlink="http://www.w3.org/1999/xlink" preserveAspectRatio="xMidYMid meet" width="512" height="512" viewBox="0 0 512 512" style="width:100%;height:100%"><defs><animateTransform repeatCount="indefinite" dur="2.002002s" begin="0s" xlink:href="#_R_G_L_0_G" fill="freeze" attributeName="transform" from="0" to="360" type="rotate" additive="sum" keyTimes="0;1" values="0;360" keySplines="0.167 0.167 0.833 0.833" calcMode="spline"/><animateTransform repeatCount="indefinite" dur="2.002002s" begin="0s" xlink:href="#_R_G_L_0_G" fill="freeze" attributeName="transform" from="-568 -540" to="-568 -540" type="translate" additive="sum" keyTimes="0;1" values="-568 -540;-568 -540" keySplines="0 0 1 1" calcMode="spline"/><animate attributeType="XML" attributeName="opacity" dur="2s" from="0" to="1" xlink:href="#time_group"/></defs><g id="_R_G"><g id="_R_G_L_0_G" transform=" translate(256, 256)"><path id="_R_G_L_0_G_D_0_P_0" fill="#0085ce" fill-opacity="1" fill-rule="nonzero" d=" M703.7 404.4 C703.7,404.4 694.08,414.02 694.08,414.02 C679.3,407.35 663.98,402.93 648.54,400.64 C634.25,398.52 619.85,398.23 605.68,399.68 C592.88,400.99 580.27,403.71 568.1,407.8 C557.15,411.46 546.55,416.23 536.49,422.04 C527.38,427.3 518.71,433.41 510.61,440.36 C510.61,440.36 510.6,440.36 510.59,440.38 C503.12,446.76 496.13,453.86 489.73,461.64 C487.09,464.83 484.56,468.15 482.13,471.58 C482.07,471.65 482.02,471.72 481.96,471.79 C481.7,472.13 481.43,472.47 481.17,472.81 C480.25,473.99 479.36,475.18 478.5,476.4 C477.5,477.8 476.54,479.22 475.61,480.67 C475.57,480.74 475.52,480.81 475.48,480.88 C475.01,481.59 474.57,482.31 474.14,483.03 C472.75,485.29 471.45,487.61 470.25,489.98 C469.02,492.35 467.89,494.76 466.86,497.23 C466.39,498.31 465.95,499.41 465.52,500.51 C463.89,504.08 462.4,507.7 461.04,511.34 C462.7,501.41 465.2,491.77 468.47,482.49 C472.02,472.41 476.48,462.77 481.75,453.65 C487.55,443.59 494.35,434.16 502,425.51 C510.5,415.89 520.07,407.21 530.51,399.68 C542.05,391.34 554.66,384.4 568.1,379.09 C582.61,373.35 598.08,369.52 614.2,367.91 C619.93,367.33 625.75,367.04 631.64,367.04 C639.23,367.04 646.71,367.53 654.04,368.48 C660.85,371.9 667.42,375.72 673.73,379.9 C684.54,387.05 694.58,395.27 703.7,404.4z "/><path id="_R_G_L_0_G_D_1_P_0" fill="#fcb115" fill-opacity="1" fill-rule="nonzero" d=" M670.82 437.28 C670.82,437.28 654.45,453.66 654.45,453.66 C654.45,453.66 654.44,453.66 654.44,453.66 C645.32,448.39 635.68,443.92 625.6,440.38 C616.32,437.1 606.68,434.6 596.76,432.95 C592.96,432.32 589.12,431.8 585.24,431.42 C579.65,430.54 573.92,430.08 568.09,430.08 C562.26,430.08 556.54,430.54 550.96,431.42 C547.08,431.8 543.24,432.32 539.44,432.95 C548.85,429.41 558.44,426.77 568.1,424.97 C578.6,423.01 589.17,422.04 599.7,422.04 C611.31,422.04 622.87,423.21 634.19,425.51 C646.78,428.07 659.07,432.01 670.81,437.28 C670.81,437.28 670.82,437.28 670.82,437.28z "/><path id="_R_G_L_0_G_D_2_P_0" fill="#ff821a" fill-opacity="1" fill-rule="nonzero" d=" M694.08 665.98 C691.71,671.23 689.05,676.4 686.11,681.51 C682.33,688.04 678.19,694.24 673.73,700.09 C667.42,704.27 660.85,708.09 654.04,711.51 C636.31,720.43 617.01,726.69 596.68,729.74 C595.86,729.86 595.05,729.97 594.23,730.09 C593.41,730.2 592.59,730.3 591.77,730.41 C590.13,730.61 588.49,730.79 586.84,730.95 C586.1,731.02 585.35,731.09 584.61,731.16 C584.38,731.18 584.15,731.2 583.91,731.21 C583.25,731.27 582.58,731.32 581.91,731.37 C581.88,731.37 581.84,731.38 581.8,731.37 C580.99,731.43 580.17,731.48 579.36,731.53 C586.2,728.68 592.95,725.36 599.54,721.55 C604.63,718.61 609.52,715.45 614.2,712.08 C627.36,702.64 638.85,691.58 648.54,679.35 C657.4,668.2 664.76,656.08 670.55,643.29 C670.64,643.09 670.73,642.9 670.81,642.71 C670.81,642.71 694.08,665.98 694.08,665.98z "/><path id="_R_G_L_0_G_D_3_P_0" fill="#0085ce" fill-opacity="1" fill-rule="nonzero" d=" M654.44 626.34 C654.3,626.6 654.15,626.85 654,627.1 C648.46,636.6 642.03,645.53 634.82,653.76 C634.46,654.18 634.1,654.59 633.73,655.01 C625.34,664.42 615.93,672.92 605.68,680.32 C594.14,688.65 581.53,695.59 568.1,700.9 C553.59,706.64 538.12,710.47 521.99,712.08 C516.26,712.66 510.44,712.95 504.55,712.95 C496.96,712.95 489.48,712.46 482.14,711.51 C475.34,708.09 468.78,704.28 462.47,700.1 C440.86,685.8 422.3,667.24 407.99,645.64 C413.84,650.09 420.04,654.23 426.58,658.01 C431.68,660.95 436.86,663.61 442.12,665.98 C456.89,672.65 472.21,677.07 487.65,679.35 C501.95,681.47 516.35,681.76 530.51,680.32 C543.31,679.01 555.92,676.28 568.1,672.2 C578.77,668.62 589.1,664.01 598.93,658.39 C599.52,658.07 600.11,657.72 600.69,657.39 C609.08,652.46 617.09,646.82 624.62,640.45 C625.33,639.86 626.03,639.26 626.73,638.65 C633.78,632.52 640.38,625.74 646.46,618.36 C646.46,618.36 654.44,626.34 654.44,626.34z "/><path id="_R_G_L_0_G_D_4_P_0" fill="#5f43a3" fill-opacity="1" fill-rule="nonzero" d=" M670.81 642.71 C670.73,642.9 670.64,643.09 670.55,643.29 C664.76,656.08 657.4,668.2 648.54,679.35 C638.85,691.58 627.36,702.64 614.2,712.08 C609.52,715.45 604.63,718.61 599.54,721.55 C592.95,725.36 586.2,728.68 579.36,731.53 C578.68,731.57 578.01,731.61 577.33,731.64 C576.84,731.67 576.34,731.69 575.85,731.71 C575.08,731.74 574.3,731.76 573.53,731.78 C573.02,731.8 572.51,731.81 572,731.82 C571.53,731.83 571.05,731.84 570.58,731.84 C569.75,731.85 568.93,731.86 568.1,731.86 C567.27,731.86 566.45,731.85 565.62,731.84 C565.12,731.84 564.61,731.83 564.11,731.82 C562.87,731.79 561.63,731.76 560.4,731.71 C559.87,731.69 559.34,731.66 558.81,731.64 C558.15,731.61 557.49,731.57 556.83,731.53 C556.06,731.49 555.28,731.44 554.51,731.38 C554.4,731.38 554.29,731.37 554.18,731.36 C553.59,731.32 553,731.27 552.42,731.22 C552.11,731.2 551.8,731.18 551.5,731.15 C550.78,731.09 550.07,731.02 549.35,730.95 C547.7,730.79 546.06,730.61 544.42,730.41 C543.6,730.3 542.78,730.2 541.96,730.09 C541.14,729.97 540.33,729.86 539.51,729.74 C519.18,726.69 499.87,720.43 482.14,711.51 C489.48,712.46 496.96,712.95 504.55,712.95 C510.44,712.95 516.26,712.66 521.99,712.08 C538.12,710.47 553.59,706.64 568.1,700.9 C581.53,695.59 594.14,688.65 605.68,680.32 C615.93,672.92 625.34,664.42 633.73,655.01 C634.1,654.59 634.46,654.18 634.82,653.76 C642.03,645.53 648.46,636.6 654,627.1 C654.15,626.85 654.3,626.6 654.44,626.34 C654.44,626.34 670.81,642.71 670.81,642.71z "/><path id="_R_G_L_0_G_D_5_P_0" fill="#ff4523" fill-opacity="1" fill-rule="nonzero" d=" M625.6 440.38 C635.68,443.92 645.32,448.39 654.44,453.66 C654.44,453.66 646.46,461.64 646.46,461.64 C643.32,459.05 640.06,456.55 636.7,454.18 C636.65,454.15 636.61,454.11 636.56,454.08 C635.48,453.22 634.37,452.37 633.26,451.54 C631.61,450.33 629.94,449.16 628.23,448.04 C628.17,447.99 628.1,447.95 628.03,447.9 C627.58,447.61 627.12,447.32 626.67,447.03 C626.46,446.9 626.25,446.76 626.04,446.64 C625.56,446.34 625.08,446.04 624.59,445.75 C623.67,445.19 622.73,444.65 621.78,444.12 C621.39,443.89 620.99,443.67 620.59,443.45 C620.44,443.38 620.29,443.29 620.14,443.22 C619.59,442.91 619.02,442.61 618.46,442.33 C618.27,442.23 618.07,442.13 617.88,442.03 C617.17,441.66 616.46,441.31 615.74,440.96 C614.99,440.6 614.23,440.24 613.47,439.9 C612.51,439.47 611.54,439.04 610.56,438.64 C609.84,438.32 609.12,438.03 608.39,437.75 C608.14,437.65 607.89,437.55 607.64,437.45 C604.05,435.82 600.42,434.32 596.76,432.95 C606.68,434.6 616.32,437.1 625.6,440.38z "/><path id="_R_G_L_0_G_D_6_P_0" fill="#ff4523" fill-opacity="1" fill-rule="nonzero" d=" M703.7 675.6 C694.58,684.73 684.54,692.94 673.73,700.09 C678.19,694.24 682.33,688.04 686.11,681.51 C689.05,676.4 691.71,671.23 694.08,665.98 C694.08,665.98 703.7,675.6 703.7,675.6z "/><path id="_R_G_L_0_G_D_7_P_0" fill="#2baa71" fill-opacity="1" fill-rule="nonzero" d=" M694.08 414.02 C694.08,414.02 670.82,437.28 670.82,437.28 C670.82,437.28 670.81,437.28 670.81,437.28 C659.07,432.01 646.78,428.07 634.19,425.51 C622.87,423.21 611.31,422.04 599.7,422.04 C589.17,422.04 578.6,423.01 568.1,424.97 C558.44,426.77 548.85,429.41 539.44,432.95 C535.8,434.3 532.18,435.79 528.6,437.42 C521.66,440.1 515.06,443.46 508.88,447.44 C507.4,448.38 505.94,449.37 504.5,450.4 C503.28,451.26 502.09,452.15 500.91,453.07 C500.57,453.33 500.23,453.6 499.89,453.86 C499.82,453.92 499.75,453.97 499.68,454.03 C496.25,456.46 492.93,458.99 489.73,461.64 C496.13,453.86 503.12,446.76 510.59,440.38 C510.6,440.36 510.61,440.36 510.61,440.36 C518.71,433.41 527.38,427.3 536.49,422.04 C546.55,416.23 557.15,411.46 568.1,407.8 C580.27,403.71 592.88,400.99 605.68,399.68 C619.85,398.23 634.25,398.52 648.54,400.64 C663.98,402.93 679.3,407.35 694.08,414.02z "/><path id="_R_G_L_0_G_D_8_P_0" fill="#5f43a3" fill-opacity="1" fill-rule="nonzero" d=" M654.05 368.49 C646.72,367.54 639.24,367.04 631.65,367.04 C625.76,367.04 619.94,367.34 614.21,367.92 C598.09,369.53 582.62,373.36 568.11,379.1 C554.67,384.41 542.06,391.35 530.52,399.69 C520.08,407.22 510.51,415.89 502.01,425.52 C494.36,434.17 487.56,443.6 481.76,453.66 C476.49,462.78 472.03,472.42 468.48,482.5 C465.21,491.78 462.71,501.42 461.05,511.35 C460.42,515.15 459.91,518.99 459.53,522.87 C458.65,528.44 458.19,534.17 458.19,540.01 C458.19,545.84 458.65,551.55 459.53,557.14 C459.91,561.02 460.42,564.86 461.05,568.66 C457.53,559.25 454.88,549.66 453.08,540.01 C451.11,529.51 450.15,518.92 450.15,508.4 C450.15,496.78 451.32,485.22 453.62,473.9 C456.17,461.32 460.11,449.03 465.39,437.29 C471.21,424.29 478.67,411.97 487.66,400.65 C497.35,388.42 508.84,377.37 522,367.92 C526.68,364.54 531.57,361.39 536.66,358.45 C543.25,354.64 550,351.31 556.84,348.47 C560.56,348.25 564.32,348.14 568.1,348.14 C571.88,348.14 575.64,348.25 579.37,348.47 C606.09,350.02 631.35,357.07 654.05,368.49z "/><path id="_R_G_L_0_G_D_9_P_0" fill="#ff821a" fill-opacity="1" fill-rule="nonzero" d=" M556.77 348.49 C549.95,351.33 543.23,354.65 536.65,358.44 C531.55,361.39 526.66,364.55 521.99,367.92 C508.83,377.37 497.35,388.42 487.65,400.65 C478.67,411.97 471.22,424.28 465.39,437.28 C460.12,449.02 456.16,461.31 453.62,473.9 C451.32,485.22 450.14,496.78 450.15,508.39 C450.15,518.93 451.1,529.51 453.07,540.01 C454.88,549.68 457.53,559.28 461.06,568.71 C462.41,572.32 463.89,575.9 465.5,579.45 C467.53,584.72 470,589.91 472.91,594.96 C475.83,600.01 479.09,604.73 482.64,609.13 C484.91,612.3 487.27,615.37 489.71,618.34 C481.96,611.95 474.87,604.97 468.49,597.52 C461.53,589.41 455.41,580.73 450.15,571.61 C444.34,561.54 439.57,550.95 435.9,539.99 C431.82,527.82 429.09,515.21 427.79,502.4 C426.33,488.24 426.63,473.84 428.75,459.54 C431.04,444.11 435.46,428.79 442.13,414.02 C444.5,408.76 447.15,403.58 450.09,398.49 C453.89,391.9 458.08,385.65 462.58,379.76 C465.69,377.71 468.89,375.73 472.16,373.84 C475.44,371.95 478.75,370.17 482.09,368.49 C506,356.47 531.4,349.95 556.77,348.49z "/><path id="_R_G_L_0_G_D_10_P_0" fill="#ff4523" fill-opacity="1" fill-rule="nonzero" d=" M462.54 379.81 C458.05,385.68 453.88,391.92 450.09,398.49 C447.14,403.59 444.48,408.78 442.12,414.03 C435.46,428.79 431.04,444.11 428.75,459.54 C426.63,473.84 426.34,488.23 427.79,502.39 C429.09,515.2 431.82,527.82 435.9,540 C439.57,550.95 444.34,561.55 450.15,571.6 C455.41,580.73 461.53,589.41 468.49,597.52 C474.89,605 481.99,611.98 489.76,618.38 C492.73,620.83 495.8,623.19 498.97,625.46 C503.36,629.01 508.1,632.28 513.15,635.19 C518.2,638.11 523.38,640.57 528.65,642.59 C532.2,644.21 535.78,645.68 539.39,647.04 C529.48,645.38 519.85,642.88 510.59,639.62 C500.51,636.07 490.87,631.61 481.75,626.35 C471.69,620.54 462.26,613.75 453.61,606.09 C443.99,597.59 435.32,588.04 427.79,577.59 C419.45,566.06 412.5,553.43 407.19,539.99 C401.45,525.49 397.62,510.01 396.02,493.88 C395.44,488.15 395.15,482.33 395.15,476.45 C395.14,468.84 395.64,461.34 396.59,453.99 C398.26,450.66 400.05,447.34 401.94,444.07 C403.83,440.8 405.8,437.6 407.86,434.48 C422.56,412.11 441.3,393.76 462.54,379.81z "/><path id="_R_G_L_0_G_D_11_P_0" fill="#fcb115" fill-opacity="1" fill-rule="nonzero" d=" M396.58 454.05 C395.63,461.38 395.14,468.86 395.14,476.45 C395.14,482.34 395.43,488.16 396.01,493.89 C397.62,510.01 401.45,525.48 407.19,539.99 C412.5,553.43 419.44,566.04 427.78,577.58 C435.31,588.02 443.98,597.59 453.61,606.09 C462.26,613.74 471.69,620.54 481.75,626.34 C490.87,631.61 500.51,636.07 510.59,639.62 C519.87,642.89 529.51,645.39 539.44,647.05 C543.24,647.68 547.08,648.19 550.96,648.57 C556.54,649.45 562.27,649.91 568.1,649.91 C573.93,649.91 579.65,649.45 585.23,648.57 C589.11,648.19 592.95,647.68 596.75,647.05 C587.34,650.57 577.75,653.22 568.1,655.02 C557.6,656.99 547.02,657.95 536.49,657.95 C524.87,657.95 513.31,656.78 501.99,654.48 C489.41,651.93 477.12,647.99 465.38,642.71 C452.39,636.89 440.06,629.43 428.74,620.44 C416.52,610.75 405.46,599.26 396.01,586.1 C392.64,581.42 389.48,576.53 386.54,571.44 C382.73,564.85 379.41,558.1 376.56,551.26 C376.34,547.54 376.23,543.78 376.23,540 C376.23,536.22 376.34,532.46 376.56,528.73 C378.11,502.01 385.16,476.75 396.58,454.05z "/><path id="_R_G_L_0_G_D_12_P_0" fill="#2baa71" fill-opacity="1" fill-rule="nonzero" d=" M646.48 618.33 C646.47,618.34 646.46,618.35 646.46,618.36 C640.38,625.74 633.78,632.52 626.73,638.65 C626.03,639.26 625.33,639.86 624.62,640.45 C617.09,646.82 609.08,652.46 600.69,657.39 C600.11,657.72 599.52,658.07 598.93,658.39 C589.1,664.01 578.77,668.62 568.1,672.2 C555.92,676.28 543.31,679.01 530.51,680.32 C516.35,681.76 501.95,681.47 487.65,679.35 C472.21,677.07 456.89,672.65 442.12,665.98 C436.86,663.61 431.68,660.95 426.58,658.01 C420.04,654.23 413.84,650.09 407.99,645.64 C403.82,639.33 400,632.77 396.58,625.97 C389.08,611.07 383.46,595.05 380.05,578.25 C379.73,576.65 379.42,575.04 379.14,573.42 C379,572.62 378.86,571.81 378.73,571 C378.29,568.32 377.91,565.61 377.58,562.89 C377.51,562.33 377.45,561.76 377.39,561.19 C377.24,559.86 377.11,558.53 376.99,557.19 C376.92,556.38 376.85,555.57 376.79,554.76 C376.73,553.95 376.67,553.14 376.62,552.32 C376.59,551.96 376.57,551.59 376.55,551.23 C376.55,551.24 376.56,551.24 376.56,551.25 C376.55,551.26 376.55,551.26 376.56,551.26 C379.41,558.1 382.74,564.85 386.54,571.45 C389.48,576.53 392.64,581.42 396.01,586.1 C401.32,593.5 407.14,600.37 413.41,606.7 C415.48,608.81 417.62,610.86 419.8,612.84 C422.7,615.49 425.68,618.02 428.74,620.45 C430.86,622.13 433.02,623.76 435.21,625.34 C444.71,632.17 454.83,637.98 465.38,642.71 C477.12,647.99 489.41,651.93 502,654.48 C513.32,656.78 524.88,657.95 536.49,657.95 C537.25,657.95 538.02,657.94 538.78,657.93 C539.91,657.92 541.04,657.89 542.17,657.86 C542.81,657.84 543.44,657.81 544.07,657.78 C544.7,657.76 545.34,657.72 545.97,657.69 C546.91,657.64 547.84,657.58 548.78,657.51 C549.3,657.47 549.81,657.43 550.33,657.39 C551.75,657.28 553.17,657.15 554.59,657 C555.15,656.94 555.71,656.88 556.26,656.81 C557.66,656.65 559.05,656.48 560.44,656.28 C561.01,656.2 561.58,656.12 562.15,656.03 C562.82,655.93 563.49,655.83 564.16,655.71 C564.82,655.61 565.47,655.5 566.13,655.38 C566.36,655.34 566.59,655.3 566.82,655.26 C567.73,655.1 568.65,654.92 569.57,654.76 C570.28,654.62 571,654.47 571.71,654.31 C572.31,654.2 572.91,654.07 573.52,653.92 C574.72,653.66 575.93,653.38 577.13,653.08 C580.73,652.21 584.31,651.21 587.88,650.09 C588.2,650 588.53,649.9 588.85,649.79 C589.65,649.54 590.45,649.28 591.24,649.01 C591.99,648.76 592.74,648.5 593.49,648.23 C593.78,648.14 594.07,648.03 594.36,647.93 C594.57,647.86 594.77,647.78 594.98,647.7 C595.57,647.49 596.16,647.27 596.75,647.05 C597.6,646.74 598.44,646.41 599.29,646.08 C602.09,644.98 604.88,643.8 607.64,642.54 C607.71,642.52 607.78,642.49 607.84,642.46 C608.33,642.27 608.82,642.08 609.3,641.88 C609.47,641.81 609.64,641.75 609.81,641.67 C610.39,641.44 610.97,641.19 611.55,640.94 C613.48,640.11 615.39,639.22 617.26,638.28 C617.89,637.96 618.51,637.64 619.12,637.32 C619.74,636.99 620.36,636.66 620.97,636.33 C622.8,635.32 624.61,634.26 626.37,633.15 C629.9,630.93 633.3,628.52 636.56,625.92 C636.61,625.89 636.65,625.85 636.7,625.82 C640.06,623.45 643.31,620.95 646.45,618.35 C646.46,618.35 646.47,618.34 646.48,618.33z "/></g></g><g id="time_group"/></svg>